<svg width="664" height="234" viewBox="0 0 664 234" fill="none" xmlns="http://www.w3.org/2000/svg">
<path d="M177.625 123.888C181.772 125.454 187.012 128.672 190.68 133.771C196.499 141.864 203.823 148.223 212.115 153.64C214.762 155.374 217.271 157.419 219.522 159.622C225.181 165.174 227.728 171.753 225.219 179.59C222.686 187.496 216.067 189.972 208.783 191.054C199.578 192.412 190.432 190.904 181.371 189.41L180.276 189.23C169.192 187.419 158.334 188.048 147.423 190.197C138.299 191.982 129.095 193.724 119.732 192.148C107.854 190.142 101.579 180.23 105.274 168.902C107.649 161.593 112.068 155.766 119.435 152.257C126.825 148.726 132.655 143.352 137.101 136.306C144.967 123.834 161.787 118.405 177.625 123.888Z" fill="#F5B200"/>
<path d="M152.803 110.836C154.992 110.331 155.903 109.409 155.507 107.548L155.512 107.554C155.39 100.685 154.856 94.3112 154.325 87.9739L154.325 87.967C154.291 87.5688 154.258 87.1707 154.225 86.7727C154.203 86.5125 154.181 86.2524 154.16 85.9922C152.378 64.468 144.999 45.7968 131.858 30.047C127.132 24.3812 122.061 19.1405 115.335 16.4248C108.329 13.5911 103.322 17.113 102.444 25.4098C102.087 28.7823 102.219 32.1335 102.656 35.4691C104.525 49.7122 109.131 62.9585 114.799 75.6818C118.719 84.4806 123.918 92.3556 129.119 100.235C132.442 105.268 135.765 110.302 138.757 115.58C139.482 116.856 140.146 116.465 141.006 115.891C144.681 113.452 148.666 111.797 152.803 110.836Z" fill="white"/>
<path d="M68.3898 42.9934C72.6698 43.7743 76.8012 46.9103 80.7402 50.2591C90.9578 58.9512 99.0189 69.5504 106.542 80.5705C115.489 93.6882 123.355 107.474 131.207 121.275C132.019 122.702 132.099 123.434 130.705 124.495C126.727 127.528 123.271 131.131 120.398 135.239C119.445 136.603 118.71 136.497 117.442 135.721C106.634 129.13 95.2746 123.611 83.7749 118.368C82.8762 117.958 81.9662 117.379 81.3067 116.652C67.4656 101.319 57.7655 83.8716 54.8335 63.0765C54.1964 58.5534 54.035 53.9413 55.8239 49.5076C57.8603 44.4597 62.1241 41.9417 68.3958 42.9943L68.3898 42.9934Z" fill="white"/>
<path d="M44.8126 116.746C61.5962 118.034 78.5001 124.601 94.943 132.97C95.5948 133.301 96.2418 133.644 96.8886 133.986L96.8891 133.987L96.8908 133.988L96.8909 133.988C98.1031 134.63 99.3146 135.272 100.556 135.832C101.695 136.343 113.719 140.344 112.648 143.92C111.249 148.59 107.969 148.712 102.114 152.675C100.232 153.949 99.0975 154.747 97.8005 155.067C84.8514 158.234 71.8375 159.652 58.7309 157.796C44.115 155.729 30.5772 150.437 18.8411 140.066C16.7647 138.232 14.9759 136.052 13.7204 133.373C11.2596 128.117 12.5087 123.06 16.9719 119.877C21.1625 116.89 25.8478 116.431 30.5288 116.171C34.8201 115.933 39.1193 116.061 44.8126 116.746Z" fill="white"/>
<path d="M275.644 109.585C258.824 110.234 241.682 116.156 224.934 123.894C224.27 124.2 223.61 124.518 222.951 124.836L222.95 124.836L222.949 124.837L222.949 124.837C221.713 125.433 220.478 126.029 219.216 126.541C218.059 127.009 205.891 130.551 206.826 134.164C208.047 138.884 212.393 140.984 216.074 143.509C217.948 144.794 219.956 145.498 221.24 145.867C234.059 149.523 247.01 151.434 260.177 150.077C274.861 148.566 288.59 143.792 300.711 133.873C302.856 132.119 304.726 130.009 306.083 127.38C308.741 122.221 307.685 117.12 303.346 113.77C299.271 110.627 294.607 109.99 289.939 109.552C285.66 109.151 281.359 109.116 275.644 109.585Z" fill="white"/>
<path d="M33.3826 165.572C49.8109 161.585 67.9897 162.582 86.286 165.434C87.011 165.545 87.7351 165.671 88.459 165.796L88.4596 165.796L88.4615 165.796C89.8182 166.031 92.2255 166.232 93.5847 166.379C94.8304 166.512 95.4619 167.348 95.4933 168.701C94.5524 174.01 95.2298 177.278 96.7984 182.799C97.6955 184.571 96.0959 185.479 94.9561 186.186C83.5697 193.218 72.483 197.978 59.3904 200.282C44.7911 202.856 30.2224 202.027 15.801 195.809C13.2497 194.71 10.8662 193.193 8.83722 191.036C4.85917 186.802 4.4855 181.605 7.76224 177.193C10.8397 173.053 15.1722 171.161 19.5622 169.46C23.587 167.901 27.7329 166.688 33.3826 165.572Z" fill="white"/>
<path d="M295.755 155.633C280.178 154.074 272.893 156.914 253.267 160.329C251.358 160.661 247.497 160.251 245.613 160.063C243.729 159.874 241.745 159.847 241.281 159.801C240.469 159.72 238.151 159.465 236.881 159.338C235.612 159.211 230.863 157.925 229.942 158.919C229.021 159.913 230.746 160.844 232.416 163.705C235.043 168.205 236.167 174.551 235.257 180.218C234.576 182.083 236.257 182.796 237.461 183.363C249.488 189.001 260.958 192.42 274.122 193.164C288.802 193.996 303.06 191.455 316.553 183.58C318.941 182.188 321.114 180.401 322.865 178.019C326.298 173.347 326.069 168.143 322.333 164.148C318.825 160.4 314.339 159.033 309.818 157.862C305.674 156.79 301.45 156.074 295.755 155.633Z" fill="white"/>
<path d="M194.613 77.3546C199.964 60.9344 200.55 44.4445 195.33 27.5353L195.319 27.539C194.318 24.7289 192.997 21.7086 190.882 19.1127C186.325 13.5205 180.97 13.4701 176.333 18.9456C173.385 22.4249 171.533 26.5098 169.774 30.6613C166.872 37.5312 165.015 44.7436 163.519 51.9872C162.41 57.3922 161.303 62.9194 162.18 68.5828C164.272 82.0744 165.053 95.6679 164.909 109.31C164.896 110.513 165.367 110.52 166.044 110.531L166.044 110.531C166.141 110.533 166.242 110.534 166.347 110.54C169.829 110.707 173.315 111.038 176.62 112.186C178.173 112.726 178.818 112.412 179.595 111.004C185.571 100.213 190.786 89.1025 194.613 77.3546Z" fill="white"/>
<path d="M240.972 43.9459L240.972 43.9458L240.973 43.9457C241.74 43.7769 242.384 43.6353 243.038 43.5422C248.804 42.7257 252.887 45.6199 254.059 51.325C255.337 57.5333 254.28 63.553 252.524 69.4952C249.239 80.5915 243.329 90.2108 236.167 99.2157C232.739 103.525 228.415 106.631 224.082 109.743L224.082 109.743L224.082 109.743L224.081 109.744L224.081 109.744C223.192 110.382 222.303 111.021 221.421 111.67C215.089 116.327 208.374 120.427 201.653 124.505C200.336 125.305 199.535 125.316 198.453 124.031C195.725 120.795 192.653 117.864 189.012 115.672C187.529 114.78 187.478 114.183 188.378 112.755C193.812 104.124 199.16 95.4478 203.42 86.1545C206.1 80.3061 208.328 74.2942 210.278 68.1767C210.867 66.3376 211.596 64.7307 212.999 63.333C219.829 56.5235 226.932 50.0889 235.693 45.8071C236.678 45.3248 237.715 44.946 238.604 44.6212L238.605 44.621C238.973 44.4864 239.316 44.3612 239.619 44.2417L239.623 44.235C240.121 44.1331 240.564 44.0357 240.972 43.9459Z" fill="white"/>
<path d="M410.74 21.2909C416.475 21.2909 420.489 20.9781 426.119 20.9781C445.929 20.9781 465.895 30.7265 465.895 56.3226C465.895 78.8952 452.08 92.5013 430.915 92.5013C424.764 92.5013 417.882 92.1363 410.74 92.1363C408.134 92.1363 404.745 92.397 402.764 92.397C400.314 92.397 399.428 91.4586 399.428 90.3118C399.428 87.4967 404.328 88.018 404.902 83.5348C405.215 81.3453 405.319 63.6209 405.319 56.0098C405.319 50.6404 405.319 33.6458 405.215 31.9255C404.745 25.8262 399.741 26.4518 399.741 23.3239C399.741 22.1771 400.314 21.0302 402.869 21.0302C404.797 21.0302 408.238 21.2909 410.74 21.2909ZM415.953 32.8117V80.3548C415.953 85.2551 417.83 86.1935 429.038 86.1935C446.919 86.1935 454.061 72.7959 454.061 57.9387C454.061 40.9441 446.293 27.2859 424.972 27.2859C416.631 27.2859 415.953 28.8498 415.953 32.8117ZM488.689 64.455C495.727 62.6826 504.746 62.5262 505.893 61.7442C506.31 61.4314 506.831 60.7537 506.831 57.678C506.831 50.0148 503.651 43.707 495.571 43.707C489.107 43.707 486.396 48.5552 485.405 53.1427C484.884 55.4885 484.05 56.7918 481.652 56.7918C479.306 56.7918 476.282 55.0715 476.282 50.9532C476.282 45.1667 483.529 38.8067 495.779 38.8067C509.646 38.8067 516.996 47.2519 516.996 59.7632C516.996 66.6966 516.423 76.1322 516.423 80.407C516.423 82.805 517.257 85.0466 519.499 85.0466C520.906 85.0466 521.375 84.5253 522.209 84.5253C522.47 84.5253 523.044 84.9423 523.044 86.1413C523.044 89.6862 519.499 92.9183 514.963 92.9183C510.949 92.9183 508.03 91.3023 506.57 87.1839C506.414 86.6626 506.101 86.2977 505.736 86.2977C505.371 86.2977 504.954 86.9754 504.537 87.3925C501.044 90.8852 495.31 93.4396 488.95 93.4396C480.14 93.4396 473.259 88.7479 473.259 80.5112C473.259 72.3788 479.306 66.9573 488.689 64.455ZM506.779 71.3884C506.779 68.5212 506.518 67.4786 505.788 67.4786C500.315 67.4786 496.144 67.8956 492.651 68.9382C486.187 70.8671 483.737 74.9854 483.737 78.843C483.737 83.8997 487.699 86.6105 492.704 86.6105C500.68 86.6105 506.779 80.8761 506.779 71.3884ZM532.026 27.1295C532.026 22.542 536.405 17.9545 540.993 17.9545C544.277 17.9545 546.831 20.0919 546.831 23.4282C546.831 28.12 541.983 31.8212 537.135 31.8212C533.694 31.8212 532.026 29.8403 532.026 27.1295ZM545.007 41.8303C545.007 44.1762 544.538 48.1381 544.538 57.8865V81.3974C544.538 84.5774 545.476 85.9328 547.04 87.0797C548.552 88.1744 550.168 88.4872 550.168 90.2075C550.168 91.4586 549.49 92.4491 546.884 92.4491C544.277 92.4491 542.557 92.1885 539.69 92.1885C536.77 92.1885 536.145 92.4491 531.87 92.4491C529.472 92.4491 528.846 91.4586 528.846 90.3118C528.846 88.5915 530.567 87.9659 531.557 87.2361C534.112 85.4115 534.529 83.5348 534.529 80.9283V52.465C534.529 50.0148 533.173 48.7116 531.036 47.9817C529.993 47.4604 528.846 46.7827 528.846 45.6358C528.846 43.5506 531.036 43.3421 533.851 42.2474C538.543 40.3185 540.732 38.8067 542.348 38.8067C544.173 38.8067 545.007 39.7451 545.007 41.8303ZM578.577 38.7546C583.582 38.7546 590.724 39.9536 594.06 43.3942C595.885 45.3231 596.562 47.7732 596.562 51.7873C596.562 54.498 595.78 55.8013 594.373 55.8013C592.705 55.8013 591.714 53.8725 590.307 51.8394C587.961 48.5552 584.051 44.0719 577.118 44.0719C571.435 44.0719 568.203 47.2519 568.203 51.3702C568.203 56.7918 573.416 58.5121 581.184 60.9101C590.515 63.7252 599.117 66.7487 599.117 77.4355C599.117 87.8095 589.89 93.5439 578.577 93.5439C572.113 93.5439 562.938 91.4065 559.445 86.0892C558.142 84.2646 557.517 81.5538 557.517 78.426C557.517 75.4546 558.351 74.1513 559.81 74.1513C560.905 74.1513 561.739 75.4024 562.782 77.1227C565.388 81.3974 570.236 87.4967 579.62 87.4967C585.459 87.4967 588.847 84.421 588.847 79.625C588.847 73.6821 583.113 72.1703 574.876 69.3553C567.369 66.8009 559.08 63.9337 559.08 54.1331C559.08 44.1241 568.568 38.7546 578.577 38.7546ZM650.797 51.3702C647.461 59.2941 642.769 73.2129 637.712 84.7859C629.788 103.032 624.679 114.396 614.775 114.396C610.083 114.396 606.486 111.268 606.486 106.733C606.486 102.667 609.249 99.4346 612.377 99.4346C613.888 99.4346 614.775 100.425 615.348 101.728C616.182 103.709 617.121 105.325 618.789 105.325C621.343 105.325 626.4 98.1835 626.4 94.2737C626.4 90.7288 615.4 65.3933 612.95 59.6068C610.865 54.6544 608.154 47.4604 605.235 45.4273C604.088 44.489 602.837 43.6028 602.837 42.0388C602.837 40.6313 603.775 39.693 605.495 39.693C607.789 39.693 609.874 39.9536 612.272 39.9536C614.462 39.9536 617.798 39.693 620.196 39.693C621.969 39.693 623.272 40.0057 623.272 42.1952C623.272 43.9155 620.04 44.906 620.04 47.8775C620.04 49.8584 620.978 52.7777 625.514 64.3507C629.476 74.6205 631.874 80.7719 632.551 80.7719C633.385 80.7719 635.835 74.6205 639.641 63.2039C643.134 53.0384 643.551 50.1712 643.551 48.3988C643.551 44.5932 639.641 44.2805 639.641 41.9867C639.641 40.527 640.579 39.693 641.935 39.693C643.655 39.693 647.148 39.9536 648.712 39.9536C650.536 39.9536 653.403 39.693 654.602 39.693C656.531 39.693 657 40.6313 657 41.7782C657 44.7496 653.821 44.0719 650.797 51.3702Z" fill="white"/>
<path d="M412.181 155.354C417.394 154.041 424.075 153.925 424.924 153.346C425.233 153.114 425.619 152.612 425.619 150.334C425.619 144.658 423.264 139.985 417.279 139.985C412.49 139.985 410.482 143.576 409.749 146.975C409.362 148.712 408.745 149.678 406.968 149.678C405.231 149.678 402.991 148.403 402.991 145.353C402.991 141.066 408.358 136.355 417.433 136.355C427.705 136.355 433.149 142.611 433.149 151.879C433.149 157.015 432.725 164.004 432.725 167.17C432.725 168.947 433.343 170.607 435.003 170.607C436.046 170.607 436.393 170.221 437.011 170.221C437.204 170.221 437.629 170.53 437.629 171.418C437.629 174.044 435.003 176.438 431.643 176.438C428.67 176.438 426.508 175.241 425.426 172.19C425.311 171.804 425.079 171.534 424.809 171.534C424.538 171.534 424.229 172.036 423.92 172.345C421.333 174.932 417.086 176.824 412.374 176.824C405.848 176.824 400.751 173.349 400.751 167.248C400.751 161.224 405.231 157.208 412.181 155.354ZM425.581 160.49C425.581 158.366 425.388 157.594 424.847 157.594C420.793 157.594 417.703 157.903 415.116 158.675C410.328 160.104 408.513 163.154 408.513 166.012C408.513 169.758 411.448 171.766 415.155 171.766C421.063 171.766 425.581 167.518 425.581 160.49ZM441.541 172.19L461.814 146.395C462.664 145.353 463.05 144.542 463.05 144.31C463.05 143.731 462.818 143.461 456.717 143.461C451.774 143.461 447.951 143.963 445.711 145.044C444.09 145.816 443.626 146.473 442.506 146.473C441.425 146.473 441.309 145.507 441.309 144.889C441.309 144.156 441.657 143.074 442.197 140.719C442.661 138.865 442.738 136.587 444.862 136.587C446.638 136.587 448.569 137.244 458.841 137.244C465.714 137.244 468.688 136.857 470.541 136.857C471.468 136.857 472.086 137.166 472.086 138.325C472.086 138.634 471.777 139.715 470.966 140.758L451.233 166.63C450.577 167.402 449.998 168.367 449.998 168.754C449.998 169.256 450.307 169.294 457.026 169.294C461.312 169.294 465.135 168.599 467.413 167.518C469.383 166.553 469.923 165.935 470.85 165.935C471.893 165.935 472.008 166.9 472.008 167.672C472.008 168.947 471.391 170.877 470.85 174.083C470.696 175.241 470.232 176.515 468.494 176.515C465.907 176.515 464.826 175.897 453.319 175.897C444.978 175.897 444.244 176.129 441.966 176.129C441.116 176.129 440.267 175.897 440.267 174.739C440.267 174.083 440.73 173.194 441.541 172.19ZM509.936 145.662C507.465 151.531 503.99 161.842 500.244 170.414C494.375 183.929 490.59 192.348 483.253 192.348C479.778 192.348 477.114 190.031 477.114 186.671C477.114 183.659 479.16 181.265 481.477 181.265C482.597 181.265 483.253 181.999 483.678 182.964C484.296 184.431 484.991 185.629 486.227 185.629C488.119 185.629 491.865 180.338 491.865 177.442C491.865 174.816 483.717 156.049 481.902 151.763C480.357 148.094 478.349 142.766 476.187 141.26C475.337 140.564 474.41 139.908 474.41 138.75C474.41 137.707 475.106 137.012 476.38 137.012C478.079 137.012 479.624 137.205 481.4 137.205C483.022 137.205 485.493 137.012 487.269 137.012C488.582 137.012 489.548 137.244 489.548 138.865C489.548 140.14 487.153 140.873 487.153 143.074C487.153 144.542 487.849 146.704 491.208 155.277C494.143 162.884 495.919 167.441 496.421 167.441C497.039 167.441 498.854 162.884 501.673 154.427C504.26 146.897 504.569 144.774 504.569 143.461C504.569 140.642 501.673 140.41 501.673 138.711C501.673 137.63 502.368 137.012 503.372 137.012C504.646 137.012 507.233 137.205 508.392 137.205C509.743 137.205 511.867 137.012 512.755 137.012C514.184 137.012 514.532 137.707 514.532 138.557C514.532 140.758 512.176 140.256 509.936 145.662ZM528.978 121.373C528.978 123.805 528.669 125.273 528.669 133.343V167.904C528.669 170.26 529.364 171.264 530.523 172.113C531.642 172.924 532.84 173.156 532.84 174.43C532.84 175.357 532.338 176.091 530.407 176.091C528.939 176.091 526.854 175.897 525.078 175.897C523.031 175.897 521.487 176.091 519.286 176.091C517.509 176.091 517.046 175.357 517.046 174.507C517.046 173.233 518.32 172.77 519.054 172.229C520.946 170.877 521.255 169.487 521.255 167.557V128.71C521.255 127.088 520.174 126.277 518.629 125.775C517.857 125.466 517.085 124.964 517.085 124.192C517.085 122.763 518.668 122.454 520.753 121.643C524.228 120.253 525.696 119.133 527.009 119.133C528.322 119.133 528.978 119.828 528.978 121.373ZM557.01 172.19L577.283 146.395C578.132 145.353 578.518 144.542 578.518 144.31C578.518 143.731 578.287 143.461 572.186 143.461C567.243 143.461 563.42 143.963 561.18 145.044C559.558 145.816 559.095 146.473 557.975 146.473C556.894 146.473 556.778 145.507 556.778 144.889C556.778 144.156 557.126 143.074 557.666 140.719C558.13 138.865 558.207 136.587 560.331 136.587C562.107 136.587 564.038 137.244 574.309 137.244C581.183 137.244 584.156 136.857 586.01 136.857C586.937 136.857 587.554 137.166 587.554 138.325C587.554 138.634 587.245 139.715 586.435 140.758L566.702 166.63C566.046 167.402 565.466 168.367 565.466 168.754C565.466 169.256 565.775 169.294 572.494 169.294C576.781 169.294 580.604 168.599 582.882 167.518C584.851 166.553 585.392 165.935 586.319 165.935C587.361 165.935 587.477 166.9 587.477 167.672C587.477 168.947 586.859 170.877 586.319 174.083C586.164 175.241 585.701 176.515 583.963 176.515C581.376 176.515 580.295 175.897 568.787 175.897C560.446 175.897 559.713 176.129 557.434 176.129C556.585 176.129 555.735 175.897 555.735 174.739C555.735 174.083 556.199 173.194 557.01 172.19ZM626.966 136.317C630.673 136.317 635.963 137.205 638.435 139.754C639.786 141.182 640.288 142.997 640.288 145.971C640.288 147.979 639.709 148.944 638.666 148.944C637.431 148.944 636.697 147.515 635.655 146.009C633.917 143.576 631.021 140.256 625.885 140.256C621.676 140.256 619.282 142.611 619.282 145.662C619.282 149.678 623.143 150.952 628.897 152.728C635.809 154.814 642.18 157.053 642.18 164.969C642.18 172.654 635.346 176.901 626.966 176.901C622.178 176.901 615.381 175.318 612.794 171.379C611.829 170.028 611.366 168.02 611.366 165.703C611.366 163.502 611.983 162.537 613.065 162.537C613.875 162.537 614.493 163.463 615.266 164.738C617.196 167.904 620.788 172.422 627.738 172.422C632.063 172.422 634.573 170.144 634.573 166.591C634.573 162.189 630.326 161.069 624.224 158.984C618.664 157.092 612.524 154.968 612.524 147.708C612.524 140.294 619.552 136.317 626.966 136.317Z" fill="white"/>
<path d="M604.167 171.186C604.167 174.43 601.618 176.361 598.876 176.361C596.366 176.361 594.088 174.855 594.088 171.766C594.088 168.445 596.753 166.437 599.378 166.437C601.811 166.437 604.167 168.059 604.167 171.186ZM659.224 171.186C659.224 174.43 656.675 176.361 653.933 176.361C651.423 176.361 649.145 174.855 649.145 171.766C649.145 168.445 651.81 166.437 654.435 166.437C656.868 166.437 659.224 168.059 659.224 171.186Z" fill="#F5B200"/>
</svg>
